<?xml version="1.0" standalone="no"?>
<!DOCTYPE svg PUBLIC "-//W3C//DTD SVG 20010904//EN"
 "http://www.w3.org/TR/2001/REC-SVG-20010904/DTD/svg10.dtd">
<svg version="1.0" xmlns="http://www.w3.org/2000/svg"
 width="432.000000pt" height="387.000000pt" viewBox="0 0 432.000000 387.000000"
 preserveAspectRatio="xMidYMid meet">

<g transform="translate(0.000000,387.000000) scale(0.100000,-0.100000)"
fill="#000000" stroke="none">
<path d="M2055 3414 c-22 -3 -85 -13 -140 -24 -301 -59 -548 -191 -771 -414
-220 -221 -349 -460 -416 -770 -29 -136 -31 -435 -4 -571 38 -193 122 -402
221 -550 70 -105 67 -103 112 -71 21 14 49 35 62 46 l24 20 -29 40 c-123 171
-206 373 -240 578 -12 73 -15 136 -11 257 8 232 43 368 144 568 179 352 480
594 872 699 111 30 125 32 311 32 209 1 284 -10 440 -61 90 -30 263 -113 305
-148 l30 -24 -435 -435 c-239 -240 -439 -436 -443 -436 -5 0 -34 22 -65 48
-120 103 -250 182 -372 228 -67 25 -89 28 -195 28 -111 1 -124 -1 -176 -27
-176 -86 -269 -231 -269 -418 0 -84 22 -169 60 -231 38 -64 123 -138 199 -176
71 -35 79 -37 180 -37 94 0 116 4 193 31 90 32 204 98 273 158 l40 35 -56 56
-55 56 -50 -41 c-106 -88 -230 -140 -337 -140 -113 0 -222 72 -269 178 -26 59
-26 166 1 226 30 69 94 132 157 156 193 72 427 -44 749 -369 l120 -121 -503
-503 -503 -503 23 -20 c154 -138 424 -270 665 -325 130 -29 393 -37 542 -15
274 41 544 168 765 361 268 235 450 573 497 922 15 115 6 415 -16 513 -25 113
-79 268 -125 362 -42 83 -142 242 -160 253 -6 4 -37 -15 -69 -40 l-59 -47 54
-79 c154 -226 228 -474 228 -759 -1 -177 -21 -295 -78 -453 -150 -414 -481
-718 -921 -846 -234 -68 -517 -59 -771 24 -106 35 -282 120 -316 154 -17 15 7
41 420 453 l437 437 96 -79 c341 -276 643 -315 850 -109 224 223 159 589 -128
731 -161 79 -395 35 -594 -112 -36 -28 -71 -56 -77 -63 -7 -9 4 -28 43 -70
l53 -59 62 50 c202 163 400 182 530 52 62 -62 85 -119 84 -210 0 -92 -30 -157
-99 -218 -107 -94 -246 -95 -425 -1 -114 59 -220 144 -378 301 l-142 143 500
500 c275 275 500 503 500 508 0 19 -211 161 -322 215 -149 74 -250 108 -388
134 -102 19 -347 31 -435 22z"/>
</g>
</svg>
